<svg xmlns="http://www.w3.org/2000/svg" width="101" height="112" viewBox="0 0 101 112" fill="none">
  <mask id="path-1-outside-1_2_11" maskUnits="userSpaceOnUse" x="0" y="0" width="101" height="112"
    fill="black">
    <rect fill="white" width="101" height="112" />
    <path fill-rule="evenodd" clip-rule="evenodd" d="M22 6H6L38 106H54H79H95L63 6H47H22Z" />
  </mask>
  <path
    d="M6 6V0C4.08408 0 2.28337 0.914985 1.15377 2.46248C0.0241692 4.00998 -0.29847 6.00389 0.285455 7.82865L6 6ZM38 106L32.2855 107.829C33.0807 110.314 35.3908 112 38 112V106ZM95 106V112C96.9159 112 98.7166 111.085 99.8462 109.538C100.976 107.99 101.298 105.996 100.715 104.171L95 106ZM63 6L68.7145 4.17135C67.9193 1.68627 65.6092 0 63 0V6ZM6 12H22V0H6V12ZM43.7145 104.171L11.7145 4.17135L0.285455 7.82865L32.2855 107.829L43.7145 104.171ZM54 100H38V112H54V100ZM79 100H54V112H79V100ZM95 100H79V112H95V100ZM57.2855 7.82865L89.2855 107.829L100.715 104.171L68.7145 4.17135L57.2855 7.82865ZM47 12H63V0H47V12ZM22 12H47V0H22V12Z"
    fill="white" mask="url(#path-1-outside-1_2_11)" />
  <path d="M6 6H47L79 106H38L6 6Z" fill="#C61937" />
  <path d="M22 6H63L95 106H54L22 6Z" fill="#004AAD" />
</svg>