<?xml version="1.0" encoding="UTF-8"?>
<svg id="Layer_2" data-name="Layer 2" xmlns="http://www.w3.org/2000/svg" viewBox="0 0 259.43 259.21">
  <defs>
    <style>
      .cls-1 {
      fill: #0e4096;
      }

      .cls-1, .cls-2 {
      fill-rule: evenodd;
      }

      .cls-2 {
      fill: #f9b913;
      }
    </style>
  </defs>
  <g id="Layer_1-2" data-name="Layer 1">
    <g>
      <path class="cls-1"
        d="M48.68,0H210.97c26.54,0,48.46,21.71,48.46,48.46V210.74c0,26.76-21.92,48.47-48.46,48.47H48.68c-26.75,0-48.68-21.71-48.68-48.47V48.46C0,21.71,21.93,0,48.68,0Z" />
      <g>
        <polygon class="cls-2"
          points="129.82 32.01 108.55 64.47 115.57 75.44 112.06 80.7 105.04 69.95 87.5 97.15 112.06 135.08 112.06 183.77 147.37 183.77 147.37 135.08 172.15 97.15 154.38 69.95 147.37 80.7 143.86 75.44 150.88 64.47 129.82 32.01" />
        <polygon class="cls-2"
          points="80.48 107.89 101.54 140.35 87.5 162.06 108.55 194.73 150.88 194.73 172.15 162.06 157.9 140.35 179.17 107.89 214.26 162.06 172.15 227.19 87.5 227.19 45.18 162.06 80.48 107.89" />
      </g>
    </g>
  </g>
</svg>